<svg version="1.1" id="Layer_1" xmlns="http://www.w3.org/2000/svg" xmlns:xlink="http://www.w3.org/1999/xlink" x="0px" y="0px"
	 width="100%" viewBox="0 0 735 491" enable-background="new 0 0 735 491" xml:space="preserve">
<path fill="#000000" opacity="1.000000" stroke="none" 
	d="
M736.000000,2.000000 
	C736.000000,164.691574 736.000000,327.383148 735.542053,490.536957 
	C490.389404,490.999481 245.694702,490.999725 1.000000,491.000000 
	C1.000000,328.308411 1.000000,165.616852 1.457953,2.463210 
	C246.610611,2.000762 491.305298,2.000381 736.000000,2.000000 
M389.552765,286.500275 
	C389.552765,269.065491 389.552765,251.630707 389.552765,233.832901 
	C380.044128,233.832901 371.112732,233.832901 362.098114,233.832901 
	C362.098114,214.893143 362.098114,196.324005 362.098114,177.681976 
	C366.475616,177.681976 370.579620,177.681976 375.244568,177.681976 
	C375.244568,191.380249 375.244568,204.940170 375.244568,218.600067 
	C380.223328,218.600067 384.637085,218.600067 389.258392,218.600067 
	C389.258392,199.621857 389.258392,180.901398 389.258392,162.260590 
	C375.222992,162.260590 361.500610,162.260590 347.778503,162.260590 
	C347.778503,191.497864 347.778503,220.388901 347.778503,249.676392 
	C357.008789,249.676392 365.909851,249.676392 375.167389,249.676392 
	C375.167389,268.364166 375.173828,286.655365 375.161743,304.946533 
	C375.159424,308.476410 371.590179,312.780792 368.629974,312.905212 
	C365.683960,313.029022 361.840790,308.423615 361.838684,304.728729 
	C361.831146,291.595795 361.835724,278.462830 361.835724,265.139709 
	C356.966370,265.139709 352.376221,265.139709 347.447205,265.139709 
	C347.447205,276.172791 347.393677,286.960052 347.466675,297.746490 
	C347.512634,304.542084 345.564209,312.571350 348.512146,317.784210 
	C351.464233,323.004517 359.391357,325.411469 365.138123,329.051117 
	C365.278748,329.140198 365.438293,329.205994 365.562439,329.313416 
	C367.421051,330.921783 369.104156,330.934235 371.266144,329.485016 
	C376.373138,326.061798 381.788635,323.094666 386.848602,319.608185 
	C388.175201,318.694122 389.368225,316.575500 389.411743,314.977112 
	C389.660858,305.823700 389.544861,296.660309 389.552765,286.500275 
M335.929016,197.500015 
	C335.929016,185.735840 335.929016,173.971664 335.929016,162.196411 
	C321.426941,162.196411 307.518036,162.196411 293.697266,162.196411 
	C293.480896,162.757370 293.266174,163.054306 293.265961,163.351410 
	C293.237152,202.995239 293.208130,242.639114 293.284912,282.282776 
	C293.287292,283.510620 294.068787,285.218384 295.044373,285.877808 
	C298.833710,288.438965 302.848450,290.666626 307.429626,293.407532 
	C307.429626,273.265900 307.429626,253.876556 307.429626,234.440826 
	C312.413605,234.440826 316.948547,234.440826 321.713165,234.440826 
	C321.713165,236.470261 321.712524,238.119247 321.713287,239.768234 
	C321.722321,259.257324 321.707794,278.746521 321.786407,298.235352 
	C321.792633,299.774536 321.928650,302.034760 322.889709,302.722351 
	C326.842682,305.550476 331.137909,307.900208 335.929016,310.802521 
	C335.929016,272.726929 335.929016,235.613480 335.929016,197.500015 
M443.795532,197.500092 
	C443.795532,185.736725 443.795532,173.973373 443.795532,162.182831 
	C429.271210,162.182831 415.357635,162.182831 401.464081,162.182831 
	C401.464081,211.559357 401.464081,260.676422 401.464081,310.532806 
	C405.031647,308.396271 407.881775,306.397369 410.978424,304.912628 
	C414.449707,303.248260 415.415344,300.886505 415.370239,297.059082 
	C415.142700,277.743744 415.257538,258.424316 415.273468,239.106339 
	C415.274780,237.512970 415.434570,235.919754 415.522003,234.302612 
	C420.351288,234.302612 424.790741,234.302612 429.581909,234.302612 
	C429.581909,253.934479 429.581909,273.338623 429.581909,293.661652 
	C433.545044,291.213470 436.754364,288.957947 440.209534,287.180206 
	C443.144989,285.669891 443.897095,283.645630 443.880707,280.437531 
	C443.741180,253.125626 443.797729,225.812729 443.795532,197.500092 
z"/>
<path fill="#2E2E2E" opacity="1.000000" stroke="none" 
	d="
M736.000000,1.500000 
	C491.305298,2.000381 246.610611,2.000762 1.457953,2.000571 
	C1.166667,1.666667 1.315919,1.056198 1.502793,1.044456 
	C2.830883,0.961004 4.166667,1.000000 5.500000,1.000000 
	C249.000000,1.000000 492.500000,1.000000 736.000000,1.500000 
z"/>
<path fill="#313131" opacity="1.000000" stroke="none" 
	d="
M1.000000,491.500000 
	C245.694702,490.999725 490.389404,490.999481 735.542053,490.999603 
	C735.833313,491.333313 735.684021,491.943787 735.497192,491.955536 
	C734.169128,492.038940 732.833313,492.000000 731.500000,492.000000 
	C488.000000,492.000000 244.500000,492.000000 1.000000,491.500000 
z"/>
<path fill="#F3F3F3" opacity="1.000000" stroke="none" 
	d="
M389.552765,287.000305 
	C389.544861,296.660309 389.660858,305.823700 389.411743,314.977112 
	C389.368225,316.575500 388.175201,318.694122 386.848602,319.608185 
	C381.788635,323.094666 376.373138,326.061798 371.266144,329.485016 
	C369.104156,330.934235 367.421051,330.921783 365.562439,329.313416 
	C365.438293,329.205994 365.278748,329.140198 365.138123,329.051117 
	C359.391357,325.411469 351.464233,323.004517 348.512146,317.784210 
	C345.564209,312.571350 347.512634,304.542084 347.466675,297.746490 
	C347.393677,286.960052 347.447205,276.172791 347.447205,265.139709 
	C352.376221,265.139709 356.966370,265.139709 361.835724,265.139709 
	C361.835724,278.462830 361.831146,291.595795 361.838684,304.728729 
	C361.840790,308.423615 365.683960,313.029022 368.629974,312.905212 
	C371.590179,312.780792 375.159424,308.476410 375.161743,304.946533 
	C375.173828,286.655365 375.167389,268.364166 375.167389,249.676392 
	C365.909851,249.676392 357.008789,249.676392 347.778503,249.676392 
	C347.778503,220.388901 347.778503,191.497864 347.778503,162.260590 
	C361.500610,162.260590 375.222992,162.260590 389.258392,162.260590 
	C389.258392,180.901398 389.258392,199.621857 389.258392,218.600067 
	C384.637085,218.600067 380.223328,218.600067 375.244568,218.600067 
	C375.244568,204.940170 375.244568,191.380249 375.244568,177.681976 
	C370.579620,177.681976 366.475616,177.681976 362.098114,177.681976 
	C362.098114,196.324005 362.098114,214.893143 362.098114,233.832901 
	C371.112732,233.832901 380.044128,233.832901 389.552765,233.832901 
	C389.552765,251.630707 389.552765,269.065491 389.552765,287.000305 
z"/>
<path fill="#FAFAFA" opacity="1.000000" stroke="none" 
	d="
M335.929016,198.000031 
	C335.929016,235.613480 335.929016,272.726929 335.929016,310.802521 
	C331.137909,307.900208 326.842682,305.550476 322.889709,302.722351 
	C321.928650,302.034760 321.792633,299.774536 321.786407,298.235352 
	C321.707794,278.746521 321.722321,259.257324 321.713287,239.768234 
	C321.712524,238.119247 321.713165,236.470261 321.713165,234.440826 
	C316.948547,234.440826 312.413605,234.440826 307.429626,234.440826 
	C307.429626,253.876556 307.429626,273.265900 307.429626,293.407532 
	C302.848450,290.666626 298.833710,288.438965 295.044373,285.877808 
	C294.068787,285.218384 293.287292,283.510620 293.284912,282.282776 
	C293.208130,242.639114 293.237152,202.995239 293.265961,163.351410 
	C293.266174,163.054306 293.480896,162.757370 293.697266,162.196411 
	C307.518036,162.196411 321.426941,162.196411 335.929016,162.196411 
	C335.929016,173.971664 335.929016,185.735840 335.929016,198.000031 
M309.946869,218.697540 
	C313.719635,218.697540 317.492371,218.697540 321.406586,218.697540 
	C321.406586,204.696472 321.406586,191.230072 321.406586,177.710159 
	C316.609680,177.710159 312.200806,177.710159 307.333557,177.710159 
	C307.333557,190.874588 307.308136,203.780838 307.406464,216.686142 
	C307.411530,217.351059 308.475616,218.007919 309.946869,218.697540 
z"/>
<path fill="#FAFAFA" opacity="1.000000" stroke="none" 
	d="
M443.795532,198.000107 
	C443.797729,225.812729 443.741180,253.125626 443.880707,280.437531 
	C443.897095,283.645630 443.144989,285.669891 440.209534,287.180206 
	C436.754364,288.957947 433.545044,291.213470 429.581909,293.661652 
	C429.581909,273.338623 429.581909,253.934479 429.581909,234.302612 
	C424.790741,234.302612 420.351288,234.302612 415.522003,234.302612 
	C415.434570,235.919754 415.274780,237.512970 415.273468,239.106339 
	C415.257538,258.424316 415.142700,277.743744 415.370239,297.059082 
	C415.415344,300.886505 414.449707,303.248260 410.978424,304.912628 
	C407.881775,306.397369 405.031647,308.396271 401.464081,310.532806 
	C401.464081,260.676422 401.464081,211.559357 401.464081,162.182831 
	C415.357635,162.182831 429.271210,162.182831 443.795532,162.182831 
	C443.795532,173.973373 443.795532,185.736725 443.795532,198.000107 
M415.212830,206.479507 
	C415.212830,210.409592 415.212830,214.339676 415.212830,218.342300 
	C420.323364,218.342300 424.840271,218.342300 429.385803,218.342300 
	C429.385803,204.590240 429.385803,191.230133 429.385803,177.790863 
	C424.536652,177.790863 419.989716,177.790863 415.212830,177.790863 
	C415.212830,187.255341 415.212830,196.370300 415.212830,206.479507 
z"/>
<path fill="#121212" opacity="1.000000" stroke="none" 
	d="
M309.496765,218.683044 
	C308.475616,218.007919 307.411530,217.351059 307.406464,216.686142 
	C307.308136,203.780838 307.333557,190.874588 307.333557,177.710159 
	C312.200806,177.710159 316.609680,177.710159 321.406586,177.710159 
	C321.406586,191.230072 321.406586,204.696472 321.406586,218.697540 
	C317.492371,218.697540 313.719635,218.697540 309.496765,218.683044 
z"/>
<path fill="#121212" opacity="1.000000" stroke="none" 
	d="
M415.212830,205.982391 
	C415.212830,196.370300 415.212830,187.255341 415.212830,177.790863 
	C419.989716,177.790863 424.536652,177.790863 429.385803,177.790863 
	C429.385803,191.230133 429.385803,204.590240 429.385803,218.342300 
	C424.840271,218.342300 420.323364,218.342300 415.212830,218.342300 
	C415.212830,214.339676 415.212830,210.409592 415.212830,205.982391 
z"/>
</svg>